<svg xmlns="http://www.w3.org/2000/svg" xmlns:xlink="http://www.w3.org/1999/xlink" width="460" zoomAndPan="magnify" viewBox="0 0 345 344.999992" height="460" preserveAspectRatio="xMidYMid meet" version="1.0"><defs><clipPath id="c34e0b900c"><path d="M 14.339844 3.117188 L 330.839844 3.117188 L 330.839844 342 L 14.339844 342 Z M 14.339844 3.117188 " clip-rule="nonzero"/></clipPath></defs><g clip-path="url(#c34e0b900c)"><path fill="#f9d66c" d="M 194.757812 304.359375 C 197.351562 305.992188 199.074219 308.875 199.074219 312.15625 C 199.074219 317.246094 194.925781 321.378906 189.816406 321.378906 C 184.707031 321.378906 180.558594 317.246094 180.558594 312.15625 C 180.558594 308.875 182.28125 305.992188 184.875 304.359375 L 184.875 277.402344 L 194.757812 277.402344 Z M 100.652344 273.207031 C 103.246094 274.84375 104.972656 277.726562 104.972656 281.007812 C 104.972656 286.097656 100.824219 290.230469 95.714844 290.230469 C 90.605469 290.230469 86.453125 286.097656 86.453125 281.007812 C 86.453125 277.726562 88.179688 274.84375 90.773438 273.207031 L 90.773438 246.078125 C 90.773438 243.351562 92.988281 241.136719 95.714844 241.136719 L 146.914062 241.136719 L 146.914062 251.019531 L 100.652344 251.019531 Z M 140.386719 293.464844 C 143.085938 295.078125 144.890625 298.019531 144.890625 301.378906 C 144.890625 306.46875 140.742188 310.597656 135.632812 310.597656 C 130.523438 310.597656 126.375 306.46875 126.375 301.378906 C 126.375 298.175781 128.015625 295.351562 130.507812 293.699219 L 130.507812 259.355469 C 130.507812 256.628906 132.71875 254.414062 135.449219 254.414062 L 146.914062 254.414062 L 146.914062 264.296875 L 140.386719 264.296875 Z M 260.007812 293.679688 L 260.007812 264.296875 L 253.480469 264.296875 L 253.480469 254.414062 L 264.945312 254.414062 C 267.671875 254.414062 269.886719 256.628906 269.886719 259.355469 L 269.886719 293.484375 C 272.566406 295.097656 274.363281 298.03125 274.363281 301.378906 C 274.363281 306.46875 270.214844 310.597656 265.105469 310.597656 C 259.992188 310.597656 255.84375 306.46875 255.84375 301.378906 C 255.84375 298.164062 257.5 295.332031 260.007812 293.679688 Z M 299.742188 273.207031 L 299.742188 251.019531 L 253.480469 251.019531 L 253.480469 241.136719 L 304.679688 241.136719 C 307.40625 241.136719 309.621094 243.351562 309.621094 246.078125 L 309.621094 273.207031 C 312.214844 274.84375 313.941406 277.726562 313.941406 281.007812 C 313.941406 286.097656 309.789062 290.230469 304.679688 290.230469 C 299.570312 290.230469 295.421875 286.097656 295.421875 281.007812 C 295.421875 277.726562 297.144531 274.84375 299.742188 273.207031 Z M 215.519531 324.851562 C 218.113281 326.484375 219.835938 329.367188 219.835938 332.648438 C 219.835938 337.738281 215.6875 341.871094 210.578125 341.871094 C 205.46875 341.871094 201.320312 337.738281 201.320312 332.648438 C 201.320312 329.367188 203.042969 326.484375 205.636719 324.851562 L 205.636719 277.402344 L 215.519531 277.402344 Z M 243.597656 202.480469 L 243.597656 267.523438 L 156.796875 267.523438 L 156.796875 202.480469 Z M 197.371094 224.316406 L 193.351562 243.675781 C 192.796875 246.347656 194.511719 248.964844 197.183594 249.519531 C 199.851562 250.074219 202.46875 248.355469 203.023438 245.6875 L 207.042969 226.328125 C 207.597656 223.660156 205.882812 221.039062 203.210938 220.484375 C 200.542969 219.933594 197.925781 221.648438 197.371094 224.316406 Z M 188.136719 239.023438 L 181.589844 235.242188 C 181.589844 235.242188 188.136719 231.464844 188.136719 231.464844 C 190.496094 230.101562 191.308594 227.078125 189.945312 224.714844 C 188.582031 222.355469 185.558594 221.542969 183.195312 222.90625 L 169.238281 230.964844 C 167.710938 231.847656 166.769531 233.480469 166.769531 235.242188 C 166.769531 237.007812 167.710938 238.640625 169.238281 239.523438 L 183.195312 247.578125 C 185.558594 248.941406 188.582031 248.132812 189.945312 245.773438 C 191.308594 243.410156 190.496094 240.386719 188.136719 239.023438 Z M 217.199219 247.820312 L 231.15625 239.761719 C 232.683594 238.878906 233.625 237.25 233.625 235.484375 C 233.625 233.71875 232.683594 232.089844 231.15625 231.207031 L 217.199219 223.148438 C 214.835938 221.785156 211.8125 222.59375 210.449219 224.957031 C 209.085938 227.316406 209.898438 230.339844 212.257812 231.703125 L 218.804688 235.484375 C 218.804688 235.484375 212.257812 239.265625 212.257812 239.265625 C 209.898438 240.628906 209.085938 243.652344 210.449219 246.011719 C 211.8125 248.375 214.835938 249.183594 217.199219 247.820312 Z M 174.996094 192.601562 L 156.796875 192.601562 C 151.339844 192.601562 146.914062 197.023438 146.914062 202.480469 L 146.914062 228.019531 L 117.425781 228.019531 C 92.410156 228.019531 72.132812 206.566406 72.132812 180.101562 L 72.132812 180.097656 C 72.132812 175.066406 72.867188 170.210938 74.226562 165.65625 C 76.980469 168.628906 80.914062 170.484375 85.285156 170.484375 L 101.03125 170.484375 C 109.34375 170.484375 116.085938 163.773438 116.085938 155.433594 C 116.085938 148.71875 124.222656 145.347656 128.96875 150.097656 C 134.839844 155.96875 144.390625 155.96875 150.261719 150.097656 L 161.394531 138.964844 C 167.265625 133.09375 167.265625 123.542969 161.394531 117.671875 C 156.648438 112.921875 160.015625 104.785156 166.730469 104.785156 C 175.070312 104.785156 181.785156 98.046875 181.785156 89.734375 L 181.785156 73.988281 C 181.785156 71.65625 181.253906 69.445312 180.308594 67.476562 C 199.316406 68.460938 216.175781 78.164062 227.378906 92.886719 C 233.09375 90.464844 239.328125 89.132812 245.855469 89.132812 C 273.296875 89.132812 295.578125 112.703125 295.578125 141.738281 C 295.578125 143.792969 295.464844 145.816406 295.25 147.804688 C 314.953125 149.269531 330.503906 166.644531 330.503906 187.863281 C 330.503906 210.039062 313.511719 228.019531 292.550781 228.019531 L 253.480469 228.019531 L 253.480469 202.480469 C 253.480469 197.023438 249.054688 192.601562 243.597656 192.601562 L 225.398438 192.601562 L 225.398438 173.609375 C 225.398438 165.429688 218.757812 158.789062 210.578125 158.789062 C 206.539062 158.789062 202.871094 160.410156 200.195312 163.035156 C 197.523438 160.410156 193.855469 158.789062 189.816406 158.789062 C 181.636719 158.789062 174.996094 165.429688 174.996094 173.609375 Z M 166.730469 94.90625 C 151.226562 94.90625 143.445312 113.691406 154.410156 124.65625 C 156.425781 126.675781 156.425781 129.960938 154.410156 131.976562 L 143.277344 143.109375 C 141.257812 145.128906 137.976562 145.128906 135.957031 143.109375 C 124.992188 132.144531 106.203125 139.929688 106.203125 155.433594 C 106.203125 158.296875 103.886719 160.605469 101.03125 160.605469 L 85.285156 160.605469 C 82.429688 160.605469 80.117188 158.296875 80.117188 155.433594 C 80.117188 139.910156 61.335938 132.136719 50.363281 143.109375 C 48.34375 145.128906 45.070312 145.128906 43.050781 143.109375 L 31.910156 131.976562 C 29.890625 129.960938 29.890625 126.675781 31.910156 124.65625 C 42.875 113.691406 35.101562 94.90625 19.585938 94.90625 C 16.730469 94.90625 14.414062 92.589844 14.414062 89.734375 L 14.414062 73.988281 C 14.414062 71.132812 16.730469 68.816406 19.585938 68.816406 C 35.101562 68.816406 42.875 50.03125 31.910156 39.0625 C 29.890625 37.046875 29.890625 33.773438 31.910156 31.753906 L 43.050781 20.613281 C 45.070312 18.59375 48.34375 18.59375 50.363281 20.613281 C 61.328125 31.578125 80.117188 23.800781 80.117188 8.289062 C 80.117188 5.433594 82.429688 3.117188 85.285156 3.117188 L 101.03125 3.117188 C 103.886719 3.117188 106.203125 5.433594 106.203125 8.289062 C 106.203125 23.800781 124.992188 31.578125 135.957031 20.613281 C 137.976562 18.59375 141.257812 18.59375 143.277344 20.613281 L 154.410156 31.753906 C 156.425781 33.773438 156.425781 37.046875 154.410156 39.0625 C 143.445312 50.03125 151.226562 68.816406 166.730469 68.816406 C 169.597656 68.816406 171.902344 71.132812 171.902344 73.988281 L 171.902344 89.734375 C 171.902344 92.589844 169.597656 94.90625 166.730469 94.90625 Z M 93.164062 124.640625 C 116.71875 124.640625 135.941406 105.417969 135.941406 81.867188 C 135.941406 58.300781 116.71875 39.089844 93.164062 39.089844 C 69.601562 39.089844 50.390625 58.300781 50.390625 81.867188 C 50.390625 105.417969 69.601562 124.640625 93.164062 124.640625 Z M 93.164062 114.761719 C 75.042969 114.761719 60.269531 99.980469 60.269531 81.867188 C 60.269531 63.746094 75.042969 48.972656 93.164062 48.972656 C 111.277344 48.972656 126.058594 63.746094 126.058594 81.867188 C 126.058594 99.980469 111.277344 114.761719 93.164062 114.761719 Z M 184.875 192.601562 L 184.875 173.609375 C 184.875 170.882812 187.089844 168.671875 189.816406 168.671875 C 192.542969 168.671875 194.757812 170.882812 194.757812 173.609375 L 194.757812 192.601562 Z M 205.636719 192.601562 L 205.636719 173.609375 C 205.636719 170.882812 207.851562 168.671875 210.578125 168.671875 C 213.304688 168.671875 215.519531 170.882812 215.519531 173.609375 L 215.519531 192.601562 Z M 205.636719 192.601562 " fill-opacity="1" fill-rule="evenodd"/></g></svg>