<svg xmlns="http://www.w3.org/2000/svg" xmlns:xlink="http://www.w3.org/1999/xlink" width="460" zoomAndPan="magnify" viewBox="0 0 345 344.999992" height="460" preserveAspectRatio="xMidYMid meet" version="1.0"><path fill="#f9d66c" d="M 190.050781 327.074219 C 175.015625 329.433594 159.433594 330.625 143.734375 330.625 C 67.492188 330.625 14.359375 304.101562 14.359375 280.3125 L 14.359375 236.929688 C 37.402344 258.519531 86.019531 273.125 143.734375 273.125 C 151.324219 273.125 158.714844 272.808594 165.988281 272.304688 C 169.941406 272.046875 172.945312 268.625 172.671875 264.65625 C 172.398438 260.691406 169.238281 257.6875 165.011719 257.960938 C 158.066406 258.433594 150.996094 258.75 143.734375 258.75 C 67.492188 258.75 14.359375 232.226562 14.359375 208.4375 L 14.359375 165.054688 C 37.402344 186.644531 86.019531 201.25 143.734375 201.25 C 165.527344 201.25 186.558594 199.152344 206.253906 194.984375 C 210.132812 194.148438 212.621094 190.355469 211.800781 186.457031 C 210.980469 182.5625 207.214844 180.160156 203.277344 180.910156 C 184.5625 184.863281 164.523438 186.875 143.734375 186.875 C 67.492188 186.875 14.359375 160.351562 14.359375 136.5625 L 14.359375 93.179688 C 37.402344 114.769531 86.019531 129.375 143.734375 129.375 C 201.453125 129.375 250.066406 114.769531 273.109375 93.179688 L 273.109375 136.5625 C 273.109375 145.847656 265.449219 153.640625 259.039062 158.554688 C 255.890625 160.972656 255.285156 165.46875 257.6875 168.632812 C 259.109375 170.488281 261.238281 171.449219 263.40625 171.449219 C 264.917969 171.449219 266.453125 170.976562 267.761719 169.96875 C 269.789062 168.433594 271.386719 166.765625 273.109375 165.140625 L 273.109375 167.640625 C 273.109375 171.609375 276.332031 174.828125 280.296875 174.828125 C 284.265625 174.828125 287.484375 171.609375 287.484375 167.640625 L 287.484375 64.6875 C 287.484375 28.417969 224.335938 0 143.734375 0 C 63.136719 0 -0.015625 28.417969 -0.015625 64.6875 L -0.015625 280.3125 C -0.015625 316.582031 63.136719 345 143.734375 345 C 160.179688 345 176.511719 343.75 192.265625 341.277344 C 196.191406 340.660156 198.863281 336.980469 198.261719 333.070312 C 197.65625 329.160156 193.992188 326.542969 190.050781 327.074219 Z M 143.734375 14.375 C 219.980469 14.375 273.109375 40.898438 273.109375 64.6875 C 273.109375 88.476562 219.980469 115 143.734375 115 C 67.492188 115 14.359375 88.476562 14.359375 64.6875 C 14.359375 40.898438 67.492188 14.375 143.734375 14.375 Z M 340.542969 242.117188 C 339.898438 240.21875 338.503906 238.683594 336.675781 237.863281 C 334.851562 237.042969 332.765625 237.015625 330.925781 237.804688 C 327.476562 239.214844 323.726562 238.09375 321.957031 235.015625 C 320.1875 231.941406 321.066406 228.089844 324.042969 225.84375 C 325.652344 224.636719 326.671875 222.828125 326.875 220.828125 C 327.074219 218.832031 326.441406 216.847656 325.121094 215.351562 C 313.375 202.027344 298.28125 193.199219 281.433594 189.851562 C 279.449219 189.417969 277.378906 189.921875 275.753906 191.117188 C 274.117188 192.324219 273.082031 194.148438 272.867188 196.175781 C 272.492188 199.882812 269.503906 202.671875 265.9375 202.671875 C 262.371094 202.671875 259.382812 199.882812 259.007812 196.175781 C 258.792969 194.148438 257.742188 192.324219 256.121094 191.117188 C 254.480469 189.921875 252.410156 189.417969 250.441406 189.851562 C 233.59375 193.199219 218.484375 202.011719 206.753906 215.351562 C 205.433594 216.859375 204.800781 218.832031 205 220.828125 C 205.203125 222.828125 206.238281 224.636719 207.832031 225.84375 C 210.824219 228.101562 211.699219 231.941406 209.917969 235.015625 C 208.148438 238.09375 204.371094 239.214844 200.949219 237.804688 C 199.09375 237.015625 197.007812 237.042969 195.199219 237.863281 C 193.371094 238.683594 191.976562 240.21875 191.332031 242.117188 C 188.328125 250.972656 186.859375 259.238281 186.859375 267.359375 C 186.859375 275.484375 188.328125 283.734375 191.332031 292.589844 C 191.976562 294.484375 193.371094 296.023438 195.199219 296.84375 C 197.007812 297.675781 199.109375 297.691406 200.949219 296.902344 C 204.398438 295.476562 208.136719 296.640625 209.917969 299.691406 C 211.6875 302.765625 210.808594 306.617188 207.832031 308.859375 C 206.222656 310.070312 205.203125 311.878906 205 313.878906 C 204.800781 315.875 205.433594 317.859375 206.753906 319.355469 C 218.484375 332.695312 233.59375 341.519531 250.441406 344.855469 C 252.425781 345.273438 254.480469 344.785156 256.105469 343.589844 C 257.742188 342.382812 258.777344 340.558594 258.996094 338.53125 C 259.367188 334.824219 262.359375 332.035156 265.921875 332.035156 C 269.488281 332.035156 272.476562 334.824219 272.851562 338.53125 C 273.066406 340.558594 274.117188 342.382812 275.742188 343.589844 C 276.992188 344.511719 278.488281 345 280.011719 345 C 280.46875 345 280.945312 344.957031 281.433594 344.871094 C 298.28125 341.535156 313.390625 332.722656 325.121094 319.371094 C 326.441406 317.859375 327.074219 315.890625 326.875 313.890625 C 326.671875 311.894531 325.636719 310.082031 324.042969 308.875 C 321.066406 306.617188 320.1875 302.78125 321.957031 299.703125 C 323.738281 296.65625 327.519531 295.507812 330.925781 296.914062 C 332.765625 297.691406 334.851562 297.675781 336.675781 296.859375 C 338.503906 296.039062 339.898438 294.5 340.542969 292.601562 C 343.546875 283.75 345.015625 275.496094 345.015625 267.359375 C 345.015625 259.222656 343.546875 250.972656 340.542969 242.117188 Z M 328.699219 281.980469 C 320.75 281.460938 313.488281 285.601562 309.492188 292.53125 C 305.496094 299.460938 305.886719 307.855469 309.9375 314.410156 C 302.652344 321.308594 294.113281 326.339844 284.8125 329.203125 C 281.21875 322.289062 274.074219 317.671875 265.921875 317.671875 C 257.773438 317.671875 250.628906 322.289062 247.046875 329.1875 C 237.734375 326.328125 229.210938 321.296875 221.921875 314.394531 C 225.976562 307.839844 226.363281 299.445312 222.351562 292.515625 C 218.34375 285.589844 210.96875 281.476562 203.148438 281.964844 C 201.867188 276.875 201.234375 272.074219 201.234375 267.359375 C 201.234375 262.644531 201.867188 257.84375 203.148438 252.753906 C 210.980469 253.289062 218.355469 249.148438 222.351562 242.203125 C 226.363281 235.277344 225.976562 226.878906 221.921875 220.324219 C 229.210938 213.425781 237.734375 208.410156 247.035156 205.535156 C 250.628906 212.460938 257.773438 217.0625 265.921875 217.0625 C 274.074219 217.0625 281.21875 212.449219 284.8125 205.535156 C 294.113281 208.410156 302.636719 213.425781 309.925781 220.324219 C 305.886719 226.878906 305.496094 235.277344 309.492188 242.203125 C 313.488281 249.148438 321.050781 253.273438 328.699219 252.753906 C 329.976562 257.84375 330.609375 262.660156 330.609375 267.359375 C 330.609375 272.0625 329.976562 276.875 328.699219 281.980469 Z M 265.921875 231.421875 C 246.113281 231.421875 229.984375 247.539062 229.984375 267.359375 C 229.984375 287.183594 246.113281 303.296875 265.921875 303.296875 C 285.730469 303.296875 301.859375 287.183594 301.859375 267.359375 C 301.859375 247.539062 285.730469 231.421875 265.921875 231.421875 Z M 265.921875 288.921875 C 254.035156 288.921875 244.359375 279.25 244.359375 267.359375 C 244.359375 255.472656 254.035156 245.796875 265.921875 245.796875 C 277.8125 245.796875 287.484375 255.472656 287.484375 267.359375 C 287.484375 279.25 277.8125 288.921875 265.921875 288.921875 Z M 265.921875 288.921875 " fill-opacity="1" fill-rule="nonzero"/></svg>