<svg xmlns="http://www.w3.org/2000/svg" xmlns:xlink="http://www.w3.org/1999/xlink" width="460" zoomAndPan="magnify" viewBox="0 0 345 344.999992" height="460" preserveAspectRatio="xMidYMid meet" version="1.0"><path fill="#f9d66c" d="M 273.175781 77.167969 L 269.003906 80.824219 C 267.152344 82.441406 268.3125 85.5 270.761719 85.5 C 272.457031 85.5 272.917969 84.246094 277.371094 80.589844 L 282.371094 84.671875 C 283.523438 85.605469 285.207031 85.425781 286.132812 84.292969 C 287.058594 83.144531 286.894531 81.464844 285.75 80.53125 L 281.449219 77.019531 L 285.621094 73.371094 C 286.730469 72.398438 286.839844 70.714844 285.871094 69.605469 C 284.902344 68.488281 283.207031 68.390625 282.105469 69.355469 L 277.253906 73.601562 L 272.257812 69.527344 C 271.121094 68.601562 269.425781 68.761719 268.5 69.90625 C 267.570312 71.054688 267.738281 72.734375 268.878906 73.667969 Z M 273.175781 77.167969 " fill-opacity="1" fill-rule="nonzero"/><path fill="#f9d66c" d="M 205.023438 81.671875 L 223.546875 81.671875 C 225.023438 81.671875 226.21875 80.480469 226.21875 79.003906 C 226.21875 77.527344 225.023438 76.332031 223.546875 76.332031 L 205.023438 76.332031 C 203.546875 76.332031 202.351562 77.527344 202.351562 79.003906 C 202.351562 80.480469 203.546875 81.671875 205.023438 81.671875 Z M 205.023438 81.671875 " fill-opacity="1" fill-rule="nonzero"/><path fill="#f9d66c" d="M 47.765625 88.730469 C 48.671875 89.363281 50.113281 89.363281 51.03125 88.707031 C 52.183594 87.878906 52.039062 86.925781 55.824219 77.085938 L 59.65625 87.242188 C 60.695312 89.949219 64.074219 89.816406 65.058594 87.242188 L 70.464844 73.363281 C 70.6875 72.8125 70.777344 72.304688 70.730469 71.84375 C 70.542969 70.203125 68.660156 69.871094 67.480469 70.628906 C 66.386719 71.335938 66.238281 73.15625 62.339844 83.53125 L 58.117188 71.828125 C 57.945312 71.300781 57.6875 70.902344 57.332031 70.644531 C 56.609375 70.105469 55.316406 70.136719 54.648438 70.628906 C 54.3125 70.878906 54.046875 71.273438 53.84375 71.828125 L 49.589844 83.4375 L 45.476562 72.125 C 45.058594 70.910156 44.523438 70.25 43.222656 70.25 C 41.429688 70.25 40.535156 71.492188 41.238281 73.363281 C 46.839844 87.234375 46.527344 87.867188 47.765625 88.730469 Z M 47.765625 88.730469 " fill-opacity="1" fill-rule="nonzero"/><path fill="#f9d66c" d="M 80.179688 87.242188 C 80.6875 88.484375 81.523438 89.199219 82.882812 89.199219 C 84.265625 89.199219 85.113281 88.472656 85.582031 87.207031 L 89.328125 77.085938 C 93.25 87.058594 93.015625 87.851562 94.230469 88.707031 C 95.5 89.59375 97.726562 89.429688 98.5625 87.242188 L 103.96875 73.363281 C 104.648438 71.683594 104.042969 70.25 102.28125 70.25 C 101.050781 70.25 100.417969 70.964844 100.03125 72.015625 L 95.84375 83.53125 L 91.621094 71.828125 C 91.269531 70.75 90.5625 70.25 89.484375 70.25 C 88.34375 70.25 87.734375 70.773438 87.34375 71.828125 L 83.09375 83.4375 L 78.980469 72.125 C 78.5625 70.910156 78.027344 70.25 76.726562 70.25 C 74.933594 70.25 74.039062 71.492188 74.738281 73.363281 Z M 80.179688 87.242188 " fill-opacity="1" fill-rule="nonzero"/><path fill="#f9d66c" d="M 113.679688 87.242188 C 114.183594 88.484375 115.023438 89.199219 116.378906 89.199219 C 117.761719 89.199219 118.613281 88.472656 119.082031 87.207031 L 122.824219 77.085938 C 126.746094 87.058594 126.515625 87.851562 127.726562 88.707031 C 129.046875 89.625 131.242188 89.378906 132.0625 87.242188 C 137.625 72.703125 137.847656 72.996094 137.730469 71.84375 C 137.542969 70.1875 135.65625 69.875 134.480469 70.628906 C 134.097656 70.878906 133.777344 71.335938 133.527344 72.015625 L 129.34375 83.53125 L 125.121094 71.828125 C 124.769531 70.75 124.0625 70.25 122.980469 70.25 C 121.84375 70.25 121.230469 70.773438 120.84375 71.828125 L 116.589844 83.4375 L 112.480469 72.125 C 112.226562 71.398438 111.929688 70.902344 111.578125 70.644531 C 110.152344 69.582031 107.144531 70.441406 108.238281 73.363281 Z M 113.679688 87.242188 " fill-opacity="1" fill-rule="nonzero"/><path fill="#f9d66c" d="M 143.199219 187.609375 C 143.160156 187.632812 143.140625 187.675781 143.101562 187.703125 L 129.738281 174.507812 C 134.296875 168.828125 130.691406 161.445312 124.585938 160.238281 C 117.691406 158.859375 111.304688 165.914062 115.023438 173.066406 L 101.226562 187.121094 C 97.492188 184.101562 93.058594 184.617188 89.890625 187.394531 L 77.785156 175.605469 C 81.847656 170 78.390625 162.863281 72.351562 161.65625 C 65.132812 160.195312 58.910156 167.859375 62.933594 174.847656 L 51.632812 186.308594 C 51.039062 186.046875 50.5 185.6875 49.835938 185.558594 C 44.992188 184.59375 40.285156 187.742188 39.3125 192.578125 C 38.210938 198.101562 42.445312 203.273438 48.085938 203.273438 C 54.800781 203.273438 59.402344 196.003906 55.699219 189.792969 L 66.929688 178.398438 C 67.558594 178.6875 68.140625 179.058594 68.847656 179.199219 C 70.433594 179.523438 71.964844 179.386719 73.480469 178.871094 L 87.011719 192.046875 C 86.996094 192.125 86.941406 192.183594 86.925781 192.261719 C 85.960938 197.101562 89.109375 201.820312 93.945312 202.785156 C 100.058594 204.03125 106.132812 198.523438 104.234375 191.679688 L 118.8125 176.828125 C 120.996094 177.957031 122.273438 178.355469 125.210938 177.539062 L 139.902344 192.046875 C 139.746094 192.472656 139.476562 192.84375 139.386719 193.296875 C 138.277344 198.839844 142.515625 204 148.175781 204 C 155.320312 204 159.535156 195.984375 155.59375 190.089844 C 152.859375 185.984375 147.308594 184.863281 143.199219 187.609375 Z M 47.375 197.867188 C 45.429688 197.476562 44.164062 195.570312 44.550781 193.621094 C 45.050781 191.125 47.992188 189.839844 50.171875 191.40625 C 50.207031 191.445312 50.191406 191.507812 50.230469 191.546875 C 50.265625 191.578125 50.320312 191.5625 50.359375 191.597656 C 51.335938 192.417969 51.886719 193.699219 51.621094 195.039062 C 51.230469 196.984375 49.367188 198.257812 47.375 197.867188 Z M 67.601562 172.429688 C 66.003906 170.019531 67.734375 166.824219 70.59375 166.824219 C 72.910156 166.824219 74.570312 168.941406 74.136719 171.136719 C 73.503906 174.289062 69.386719 175.085938 67.601562 172.429688 Z M 94.988281 197.546875 C 93.042969 197.15625 91.773438 195.253906 92.160156 193.304688 C 92.503906 191.59375 94.011719 190.410156 95.695312 190.410156 C 98 190.410156 99.667969 192.523438 99.234375 194.722656 C 98.839844 196.671875 96.964844 197.957031 94.988281 197.546875 Z M 122.128906 172.546875 C 120.183594 172.15625 118.914062 170.25 119.300781 168.300781 C 119.929688 165.167969 124.042969 164.34375 125.835938 167.007812 C 127.605469 169.675781 125.289062 173.152344 122.128906 172.546875 Z M 145.152344 197.046875 C 143.5625 194.660156 145.296875 191.445312 148.144531 191.445312 C 150.417969 191.445312 152.136719 193.515625 151.6875 195.761719 C 151.308594 197.683594 146.910156 199.699219 145.152344 197.046875 Z M 145.152344 197.046875 " fill-opacity="1" fill-rule="nonzero"/><path fill="#f9d66c" d="M 139.984375 236.011719 L 62.984375 236.011719 C 61.511719 236.011719 60.316406 237.207031 60.316406 238.683594 C 60.316406 240.160156 61.511719 241.351562 62.984375 241.351562 L 139.984375 241.351562 C 141.460938 241.351562 142.65625 240.160156 142.65625 238.683594 C 142.65625 237.207031 141.460938 236.011719 139.984375 236.011719 Z M 139.984375 236.011719 " fill-opacity="1" fill-rule="nonzero"/><path fill="#f9d66c" d="M 113.886719 257.316406 L 62.984375 257.316406 C 61.511719 257.316406 60.316406 258.511719 60.316406 259.988281 C 60.316406 261.464844 61.511719 262.65625 62.984375 262.65625 L 113.886719 262.65625 C 115.363281 262.65625 116.558594 261.464844 116.558594 259.988281 C 116.558594 258.511719 115.363281 257.316406 113.886719 257.316406 Z M 113.886719 257.316406 " fill-opacity="1" fill-rule="nonzero"/><path fill="#f9d66c" d="M 31.421875 39.761719 C 34.183594 39.761719 35.125 36.0625 32.691406 34.738281 L 4.285156 19.417969 C 3.007812 18.734375 1.375 19.199219 0.667969 20.5 C -0.03125 21.800781 0.453125 23.417969 1.753906 24.121094 C 31.558594 40.066406 30.140625 39.761719 31.421875 39.761719 Z M 31.421875 39.761719 " fill-opacity="1" fill-rule="nonzero"/><path fill="#f9d66c" d="M 43.652344 31.859375 C 44.992188 31.246094 45.582031 29.660156 44.972656 28.320312 L 33.851562 4.015625 C 33.238281 2.671875 31.632812 2.089844 30.3125 2.695312 C 28.972656 3.3125 28.382812 4.898438 28.992188 6.238281 L 40.109375 30.542969 C 40.71875 31.867188 42.289062 32.472656 43.652344 31.859375 Z M 43.652344 31.859375 " fill-opacity="1" fill-rule="nonzero"/><path fill="#f9d66c" d="M 345.941406 259.285156 C 345.941406 238.75 338.535156 218.96875 325.109375 203.609375 C 324.46875 202.859375 323.746094 202.214844 323.082031 201.496094 L 323.082031 15.859375 C 323.082031 6.992188 315.820312 -0.269531 306.847656 -0.269531 L 74.105469 -0.269531 C 65.132812 -0.269531 57.871094 6.992188 57.871094 15.859375 L 57.871094 47.261719 L 37.46875 47.261719 C 26.160156 47.261719 16.960938 56.460938 16.960938 67.773438 L 16.960938 296.347656 C 16.960938 307.597656 26.160156 316.746094 37.46875 316.746094 L 198.691406 316.746094 C 214.214844 333.578125 236.375 344.199219 261.023438 344.199219 C 307.847656 344.199219 345.941406 306.105469 345.941406 259.285156 Z M 37.46875 52.601562 L 292.425781 52.601562 C 300.730469 52.601562 307.488281 59.410156 307.488281 67.773438 L 307.488281 96.324219 L 205.53125 96.324219 C 202.410156 96.324219 199.328125 97.382812 196.792969 99.347656 L 187.535156 106.957031 C 186.046875 108.195312 184.15625 108.871094 182.195312 108.871094 L 115.148438 108.871094 C 113.675781 108.871094 112.480469 110.066406 112.480469 111.542969 C 112.480469 113.019531 113.675781 114.210938 115.148438 114.210938 L 182.195312 114.210938 C 185.394531 114.210938 188.511719 113.097656 190.933594 111.078125 L 200.125 103.519531 C 201.648438 102.34375 203.617188 101.664062 205.53125 101.664062 L 307.488281 101.664062 L 307.488281 117.601562 L 227.386719 117.601562 C 223.691406 117.601562 220.222656 119.042969 217.621094 121.660156 L 206.464844 132.855469 C 204.875 134.457031 202.753906 135.339844 200.488281 135.339844 L 22.300781 135.339844 L 22.300781 114.210938 L 95.992188 114.210938 C 97.46875 114.210938 98.664062 113.019531 98.664062 111.542969 C 98.664062 110.066406 97.46875 108.871094 95.992188 108.871094 L 22.300781 108.871094 L 22.300781 67.773438 C 22.300781 59.410156 29.105469 52.601562 37.46875 52.601562 Z M 37.46875 311.40625 C 29.105469 311.40625 22.300781 304.652344 22.300781 296.347656 L 22.300781 140.679688 L 200.488281 140.679688 C 204.183594 140.679688 207.648438 139.242188 210.253906 136.621094 L 221.410156 125.425781 C 223 123.824219 225.121094 122.941406 227.386719 122.941406 L 307.488281 122.941406 L 307.488281 188.515625 C 295.351562 180.511719 281.65625 175.785156 267.539062 174.875 L 267.539062 166.804688 L 279.351562 166.804688 C 282.433594 166.804688 284.941406 164.296875 284.941406 161.214844 L 284.941406 156.007812 C 284.941406 152.925781 282.433594 150.417969 279.351562 150.417969 L 243.5 150.417969 C 240.417969 150.417969 237.910156 152.925781 237.910156 156.007812 L 237.910156 161.214844 C 237.910156 164.296875 240.417969 166.804688 243.5 166.804688 L 256.222656 166.804688 L 256.222656 174.664062 C 211.101562 177.097656 176.113281 213.726562 176.113281 259.285156 C 176.113281 278.933594 182.886719 297 194.132812 311.40625 Z M 261.023438 338.859375 C 217.148438 338.859375 181.453125 303.160156 181.453125 259.285156 C 181.453125 192.726562 257.183594 157.078125 308.578125 195.535156 C 327.980469 209.753906 340.601562 233.339844 340.601562 259.285156 C 340.601562 303.160156 304.902344 338.859375 261.023438 338.859375 Z M 261.023438 338.859375 " fill-opacity="1" fill-rule="nonzero"/><path fill="#f9d66c" d="M 281.21875 203.777344 C 264.445312 197.910156 245.398438 199.285156 230.257812 207.46875 C 213.457031 216.535156 199.691406 238.683594 200.019531 260.460938 C 200.171875 270.339844 203.164062 279.640625 209.167969 288.890625 C 219.445312 305.164062 219.914062 306.078125 222.648438 304.539062 C 222.890625 304.40625 223.113281 304.230469 223.300781 304.03125 C 223.625 303.6875 236.464844 290.222656 236.464844 290.222656 C 237.441406 289.199219 237.445312 287.59375 236.480469 286.558594 C 230.003906 279.613281 220.1875 265.371094 227.238281 248.039062 C 233.480469 232.695312 250.429688 222.496094 267.941406 226.410156 C 258.714844 241.894531 249.492188 257.71875 248.472656 260.726562 C 245.183594 270.445312 257.089844 280.019531 267.425781 276.023438 C 270.65625 274.785156 273.007812 272.425781 274.035156 269.386719 C 275.03125 266.449219 277.242188 248.9375 279.292969 231.382812 C 280.5 232.203125 281.746094 232.941406 282.867188 233.9375 C 293.890625 243.664062 298.652344 260.058594 292.394531 274.234375 C 291.75 275.609375 286.835938 283.59375 285.328125 285.390625 C 283.792969 286.210938 283.429688 288.34375 284.710938 289.625 C 284.710938 289.625 284.734375 289.648438 284.777344 289.683594 L 284.777344 289.6875 C 285.847656 290.695312 299.203125 303.222656 300.21875 304.167969 C 300.8125 304.71875 301.65625 304.953125 302.449219 304.855469 C 303.84375 304.648438 304.265625 304.585938 310.433594 294.039062 C 321.203125 275.597656 323.433594 258.1875 317.230469 240.804688 C 311.195312 223.851562 297.773438 209.5625 281.21875 203.777344 Z M 230.894531 288.324219 C 226.019531 293.433594 223.1875 296.40625 221.535156 298.148438 C 218.839844 294.222656 214.335938 287.054688 213.648438 285.984375 C 208.203125 277.601562 205.496094 269.222656 205.359375 260.378906 C 205.167969 247.800781 210.117188 234.824219 218.0625 224.867188 C 220.277344 227.199219 224.199219 231.605469 228.113281 236.101562 C 216.351562 251.007812 216.097656 271.039062 230.894531 288.324219 Z M 279.992188 225.355469 C 280.199219 223.527344 280.414062 221.683594 280.613281 219.90625 C 281.058594 215.898438 275.378906 213.96875 273.300781 217.441406 C 272.496094 218.78125 271.660156 220.179688 270.835938 221.558594 C 256.402344 217.605469 241.636719 222.429688 231.714844 232.101562 C 226.527344 226.125 223.425781 222.671875 221.550781 220.785156 C 236.539062 205.378906 260.644531 202.238281 279.457031 208.8125 C 287.660156 211.683594 295.019531 216.894531 300.972656 223.636719 L 289.722656 233.566406 C 287.855469 231.472656 286.382812 229.082031 279.992188 225.355469 Z M 301.640625 298.242188 C 299.414062 296.082031 294.972656 291.925781 290.328125 287.570312 C 293.507812 283.515625 297.234375 276.492188 297.273438 276.40625 C 303.085938 263.285156 300.707031 248.796875 293.113281 237.695312 L 304.328125 227.800781 C 307.578125 232.265625 310.289062 237.21875 312.203125 242.597656 C 319.605469 263.371094 313.21875 280.011719 301.640625 298.242188 Z M 301.640625 298.242188 " fill-opacity="1" fill-rule="nonzero"/><path fill="#f9d66c" d="M 273.070312 302.550781 L 247.605469 302.550781 C 246.128906 302.550781 244.933594 303.746094 244.933594 305.21875 C 244.933594 306.695312 246.128906 307.890625 247.605469 307.890625 L 273.070312 307.890625 C 274.546875 307.890625 275.742188 306.695312 275.742188 305.21875 C 275.742188 303.746094 274.546875 302.550781 273.070312 302.550781 Z M 273.070312 302.550781 " fill-opacity="1" fill-rule="nonzero"/></svg>